<svg id="SvgjsSvg1000" xmlns="http://www.w3.org/2000/svg" version="1.1" xmlns:xlink="http://www.w3.org/1999/xlink" xmlns:svgjs="http://svgjs.com/svgjs" width="134.50350000000003" height="53.9989"><defs id="SvgjsDefs1001"><filter id="SvgjsFilter1009" width="200%" height="200%" x="-50%" y="-50%"><feGaussianBlur id="SvgjsFeGaussianBlur1010" stdDeviation="5 " result="SvgjsFeGaussianBlur1010Out" in="SourceGraphic"></feGaussianBlur></filter><linearGradient id="SvgjsLinearGradient1014" gradientUnits="userSpaceOnUse" x1="336.98800000000006" y1="45.0084" x2="336.98800000000006" y2="29.0022"><stop id="SvgjsStop1015" stop-opacity="1" stop-color="#a6fd00" offset="0"></stop><stop id="SvgjsStop1016" stop-opacity="1" stop-color="#1ccc00" offset="1"></stop></linearGradient></defs><path id="SvgjsPath1007" d="M399.971 37.5153L399.971 37.4863C399.971 34.6498 397.713 32.354 394.569 32.354C391.423 32.354 389.136 34.677 389.136 37.515299999999996L389.136 37.5425C389.136 40.379099999999994 391.39300000000003 42.675 394.53900000000004 42.675C397.684 42.675 399.97100000000006 40.352 399.97100000000006 37.515299999999996ZM422.792 37.5153L422.792 37.4863C422.792 34.6498 420.53499999999997 32.354 417.38899999999995 32.354C414.24399999999997 32.354 411.95799999999997 34.677 411.95799999999997 37.515299999999996L411.95799999999997 37.5425C411.95799999999997 40.379099999999994 414.215 42.675 417.361 42.675C420.506 42.675 422.792 40.352 422.792 37.515299999999996ZM378.648 41.5345C378.648 41.3926 378.60400000000004 41.2487 378.53200000000004 41.0919L374.97800000000007 33.238800000000005C374.73100000000005 32.6959 374.29400000000004 32.368500000000004 373.6820000000001 32.368500000000004L373.5510000000001 32.368500000000004C372.9390000000001 32.368500000000004 372.4880000000001 32.6959 372.2410000000001 33.238800000000005L368.6870000000001 41.0919C368.6150000000001 41.2487 368.55700000000013 41.4054 368.55700000000013 41.5629C368.55700000000013 42.132999999999996 369.0070000000001 42.5893 369.59000000000015 42.5893C370.05600000000015 42.5893 370.43400000000014 42.3324 370.62400000000014 41.904900000000005L371.33800000000014 40.266200000000005L375.8220000000001 40.266200000000005L376.5070000000001 41.8325C376.7110000000001 42.289300000000004 377.0600000000001 42.5893 377.5850000000001 42.5893C378.1810000000001 42.5893 378.6480000000001 42.118300000000005 378.6480000000001 41.5345ZM388.123 33.98C388.18 33.8514 388.239 33.666599999999995 388.239 33.495C388.239 32.8966 387.74399999999997 32.4402 387.133 32.4402C386.59299999999996 32.4402 386.2 32.7817 386.055 33.1384L383.478 39.6673L380.92900000000003 33.2098C380.754 32.7677 380.37500000000006 32.440200000000004 379.793 32.440200000000004C379.166 32.440200000000004 378.671 32.910700000000006 378.671 33.5234C378.671 33.7089 378.73 33.8793 378.803 34.0505L382.108 41.7901C382.342 42.3324 382.763 42.659800000000004 383.375 42.659800000000004L383.521 42.659800000000004C384.13300000000004 42.659800000000004 384.55400000000003 42.33240000000001 384.788 41.7901ZM403.852 37.5153L403.852 37.4863C403.852 35.775 405.09 34.3781 406.808 34.3781C407.61 34.3781 408.265 34.6351 408.891 35.091300000000004C409.05100000000004 35.1921 409.255 35.30480000000001 409.56100000000004 35.30480000000001C410.172 35.30480000000001 410.66700000000003 34.83550000000001 410.66700000000003 34.23630000000001C410.66700000000003 33.851400000000005 410.46400000000006 33.53880000000001 410.23 33.36730000000001C409.386 32.754000000000005 408.35200000000003 32.354000000000006 406.82300000000004 32.354000000000006C403.69200000000006 32.354000000000006 401.50800000000004 34.67700000000001 401.50800000000004 37.5153L401.50800000000004 37.542500000000004C401.50800000000004 40.4078 403.73600000000005 42.675000000000004 406.73600000000005 42.675000000000004C408.36600000000004 42.675000000000004 409.4440000000001 42.203500000000005 410.362 41.42C410.565 41.2487 410.74 40.978300000000004 410.74 40.6355C410.74 40.0808 410.259 39.6232 409.692 39.6232C409.42900000000003 39.6232 409.197 39.7238 409.021 39.8657C408.38100000000003 40.364799999999995 407.754 40.6502 406.808 40.6502C405.06 40.6502 403.852 39.2251 403.852 37.515299999999996ZM434.173 37.5153L434.173 37.4863C434.173 34.677 431.96 32.5255 428.75600000000003 32.5255L425.901 32.5255C425.27500000000003 32.5255 424.78000000000003 33.010600000000004 424.78000000000003 33.6235L424.78000000000003 41.4054C424.78000000000003 42.0182 425.27500000000003 42.5034 425.901 42.5034L428.75600000000003 42.5034C431.96000000000004 42.5034 434.173 40.3228 434.173 37.515299999999996ZM443.938 33.5089C443.938 32.967099999999995 443.48699999999997 32.525499999999994 442.933 32.525499999999994L437.283 32.525499999999994C436.65700000000004 32.525499999999994 436.16200000000003 33.0106 436.16200000000003 33.62349999999999L436.16200000000003 41.40539999999999C436.16200000000003 42.01819999999999 436.65700000000004 42.50339999999999 437.283 42.50339999999999L443.007 42.50339999999999C443.56 42.50339999999999 444.011 42.075799999999994 444.011 41.534499999999994C444.011 40.992 443.56 40.55 443.007 40.55L438.39 40.55L438.39 38.4557L442.27799999999996 38.4557C442.83099999999996 38.4557 443.28299999999996 38.0286 443.28299999999996 37.4863C443.28299999999996 36.944 442.83099999999996 36.5024 442.27799999999996 36.5024L438.39 36.5024L438.39 34.4788L442.933 34.4788C443.48699999999997 34.4788 443.938 34.0505 443.938 33.5089ZM397.626 37.5425C397.626 39.2534 396.37399999999997 40.6502 394.56899999999996 40.6502C392.76199999999994 40.6502 391.48099999999994 39.2251 391.48099999999994 37.515299999999996L391.48099999999994 37.48629999999999C391.48099999999994 35.77499999999999 392.73299999999995 34.37809999999999 394.53899999999993 34.37809999999999C396.3449999999999 34.37809999999999 397.6259999999999 35.80319999999999 397.6259999999999 37.51529999999999ZM420.447 37.5425C420.447 39.2534 419.195 40.6502 417.389 40.6502C415.584 40.6502 414.303 39.2251 414.303 37.515299999999996L414.303 37.48629999999999C414.303 35.77499999999999 415.554 34.37809999999999 417.361 34.37809999999999C419.166 34.37809999999999 420.447 35.80319999999999 420.447 37.51529999999999ZM431.829 37.5425C431.829 39.3114 430.591 40.521899999999995 428.75600000000003 40.521899999999995L427.023 40.521899999999995L427.023 34.505199999999995L428.75600000000003 34.505199999999995C430.591 34.505199999999995 431.829 35.746399999999994 431.829 37.515299999999996ZM374.993 38.3271L372.167 38.3271L373.58 35.0332Z " fill="#4D4D4D" transform="matrix(1,0,0,1,-310.49649999999997,-13.000549999999997)"></path><path id="SvgjsPath1008" d="M337.004 56.9996C327.612 56.9996 320 49.3887 320 39.9999C320 30.610699999999994 327.612 23.0007 337.004 23.0007C346.39500000000004 23.0007 354.007 30.610699999999998 354.007 39.9999C354.007 49.3887 346.395 56.9996 337.004 56.9996Z " fill="#000000" fill-opacity="0.15" filter="url(#SvgjsFilter1009)" transform="matrix(1,0,0,1,-310.49649999999997,-13.000549999999997)"></path><path id="SvgjsPath1011" d="M337.004 53.9996C327.612 53.9996 320 46.3887 320 36.9999C320 27.610699999999994 327.612 20.0007 337.004 20.0007C346.39500000000004 20.0007 354.007 27.610699999999998 354.007 36.9999C354.007 46.3887 346.395 53.9996 337.004 53.9996Z " fill="#ffffff" transform="matrix(1,0,0,1,-310.49649999999997,-13.000549999999997)"></path><path id="SvgjsPath1012" d="M336.989 29.0022C333.676 29.0022 330.991 35.765299999999996 330.991 39.0528C330.991 42.3425 333.676 45.008399999999995 336.989 45.008399999999995C340.301 45.008399999999995 342.98499999999996 42.342499999999994 342.98499999999996 39.0528C342.98499999999996 35.765299999999996 340.30099999999993 29.0022 336.989 29.0022ZM336.989 42.3409C335.00399999999996 42.3409 333.65599999999995 41.1229 333.65599999999995 39.0076C333.65599999999995 37.1812 334.99899999999997 33.671099999999996 336.989 33.671099999999996C338.99899999999997 33.671099999999996 340.32099999999997 37.1478 340.32099999999997 39.0076C340.32099999999997 41.18279999999999 338.938 42.3409 336.989 42.3409Z " fill="#ffffff" transform="matrix(1,0,0,1,-310.49649999999997,-13.000549999999997)"></path><path id="SvgjsPath1013" d="M336.989 29.0022C333.676 29.0022 330.991 35.765299999999996 330.991 39.0528C330.991 42.3425 333.676 45.008399999999995 336.989 45.008399999999995C340.301 45.008399999999995 342.98499999999996 42.342499999999994 342.98499999999996 39.0528C342.98499999999996 35.765299999999996 340.30099999999993 29.0022 336.989 29.0022ZM336.989 42.3409C335.00399999999996 42.3409 333.65599999999995 41.1229 333.65599999999995 39.0076C333.65599999999995 37.1812 334.99899999999997 33.671099999999996 336.989 33.671099999999996C338.99899999999997 33.671099999999996 340.32099999999997 37.1478 340.32099999999997 39.0076C340.32099999999997 41.18279999999999 338.938 42.3409 336.989 42.3409Z " fill="url(#SvgjsLinearGradient1014)" transform="matrix(1,0,0,1,-310.49649999999997,-13.000549999999997)"></path></svg>
