<svg id="SvgjsSvg1000" xmlns="http://www.w3.org/2000/svg" version="1.1" xmlns:xlink="http://www.w3.org/1999/xlink" xmlns:svgjs="http://svgjs.com/svgjs" width="268" height="241" viewBox="0 0 268 241"><title>react logo</title><desc>Created with Avocode.</desc><defs id="SvgjsDefs1001"></defs><path id="SvgjsPath1007" d="M1524.74 1319.72C1521.98 1318.76 1519.1200000000001 1317.8500000000001 1516.17 1316.99C1516.65 1314.98 1517.1000000000001 1313.01 1517.49 1311.06C1523.98 1279.1499999999999 1519.74 1253.44 1505.26 1244.97C1491.3799999999999 1236.8600000000001 1468.68 1245.32 1445.75 1265.55C1443.54 1267.5 1441.33 1269.56 1439.12 1271.72C1437.6499999999999 1270.29 1436.1799999999998 1268.91 1434.7099999999998 1267.59C1410.6799999999998 1245.9499999999998 1386.6 1236.84 1372.1399999999999 1245.33C1358.27 1253.47 1354.1599999999999 1277.6399999999999 1359.9999999999998 1307.8799999999999C1360.5599999999997 1310.8 1361.2199999999998 1313.79 1361.9599999999998 1316.82C1358.5599999999997 1317.8 1355.2599999999998 1318.85 1352.12 1319.96C1323.9399999999998 1329.92 1305.9499999999998 1345.53 1305.9499999999998 1361.72C1305.9499999999998 1378.44 1325.2699999999998 1395.21 1354.61 1405.38C1356.9299999999998 1406.18 1359.33 1406.94 1361.8 1407.66C1361 1410.94 1360.3 1414.16 1359.71 1417.2900000000002C1354.15 1447.0100000000002 1358.5 1470.6100000000001 1372.33 1478.7000000000003C1386.61 1487.0500000000002 1410.59 1478.4700000000003 1433.9399999999998 1457.7700000000002C1435.7799999999997 1456.14 1437.6399999999999 1454.4000000000003 1439.4899999999998 1452.5900000000001C1441.8999999999999 1454.93 1444.2999999999997 1457.16 1446.6799999999998 1459.2400000000002C1469.2999999999997 1478.9700000000003 1491.6399999999999 1486.9400000000003 1505.4499999999998 1478.8300000000002C1519.7299999999998 1470.45 1524.36 1445.1000000000001 1518.34 1414.2600000000002C1517.8799999999999 1411.9000000000003 1517.35 1409.4900000000002 1516.75 1407.0500000000002C1518.43 1406.5400000000002 1520.08 1406.0200000000002 1521.69 1405.4800000000002C1552.2 1395.2300000000002 1572.05 1378.6600000000003 1572.05 1361.7200000000003C1572.05 1345.4700000000003 1553.48 1329.7600000000002 1524.74 1319.7200000000003ZM1453.21 1274.25C1472.8600000000001 1256.91 1491.22 1250.07 1499.58 1254.96C1508.49 1260.17 1511.96 1281.18 1506.36 1308.74C1506 1310.49 1505.6 1312.29 1505.1599999999999 1314.1C1494.12 1311.52 1482.1399999999999 1309.6 1469.59 1308.3999999999999C1462.27 1297.85 1454.6999999999998 1288.2499999999998 1447.09 1279.9399999999998C1449.1399999999999 1277.9399999999998 1451.1799999999998 1276.0399999999997 1453.2099999999998 1274.2499999999998ZM1390.55 1361.99C1393.98 1354.74 1397.77 1347.45 1401.87 1340.24V1340.25C1405.9799999999998 1333.02 1410.3 1326.05 1414.77 1319.42C1422.68 1318.8100000000002 1430.8 1318.5 1439 1318.5C1447.24 1318.5 1455.36 1318.81 1463.27 1319.43C1467.67 1326.01 1471.97 1332.96 1476.1 1340.18C1480.27 1347.49 1484.1 1354.73 1487.57 1361.8300000000002C1484.11 1369.0500000000002 1480.29 1376.3700000000001 1476.1299999999999 1383.67C1471.9699999999998 1390.98 1467.6999999999998 1397.96 1463.37 1404.5500000000002C1455.4699999999998 1405.1200000000001 1447.31 1405.42 1439 1405.42C1430.72 1405.42 1422.66 1405.16 1414.91 1404.65C1410.4 1397.97 1406.03 1390.97 1401.9 1383.73C1397.7800000000002 1376.51 1393.99 1369.23 1390.5500000000002 1361.99ZM1384.52 1375.55C1386.9 1380.21 1389.42 1384.87 1392.06 1389.51C1394.76 1394.23 1397.55 1398.85 1400.4199999999998 1403.36C1391.6999999999998 1402.3799999999999 1383.4899999999998 1401.04 1375.8999999999999 1399.37C1378.2499999999998 1391.6699999999998 1381.1399999999999 1383.6799999999998 1384.5199999999998 1375.55ZM1384.51 1348.44C1381.2 1340.48 1378.37 1332.65 1376.05 1325.0900000000001C1383.6399999999999 1323.3700000000001 1391.74 1321.96 1400.18 1320.89C1397.38 1325.3100000000002 1394.66 1329.8500000000001 1392.02 1334.49C1389.3899999999999 1339.11 1386.8799999999999 1343.77 1384.51 1348.44ZM1485.98 1389.43C1488.69 1384.66 1491.26 1379.89 1493.7 1375.13C1497.25 1383.3500000000001 1500.25 1391.3000000000002 1502.63 1398.8700000000001C1494.92 1400.65 1486.5900000000001 1402.0900000000001 1477.8100000000002 1403.16C1480.5700000000002 1398.72 1483.3000000000002 1394.14 1485.9800000000002 1389.43ZM1493.59 1348.45C1491.1799999999998 1343.8 1488.62 1339.1200000000001 1485.9299999999998 1334.41C1483.2999999999997 1329.8000000000002 1480.6 1325.2900000000002 1477.84 1320.91C1486.33 1322 1494.47 1323.45 1502.11 1325.22C1499.81 1332.67 1496.9499999999998 1340.46 1493.59 1348.45ZM1439.13 1288.18C1444.3700000000001 1293.94 1449.6200000000001 1300.3700000000001 1454.7900000000002 1307.3500000000001C1449.5800000000002 1307.1000000000001 1444.3100000000002 1306.97 1439.0000000000002 1306.97C1433.7400000000002 1306.97 1428.5100000000002 1307.1000000000001 1423.3400000000001 1307.34C1428.5100000000002 1300.4299999999998 1433.8000000000002 1294.01 1439.13 1288.1799999999998ZM1377.83 1255.3C1386.73 1250.08 1406.4199999999998 1257.53 1427.1699999999998 1276.21C1428.4899999999998 1277.4 1429.82 1278.65 1431.1599999999999 1279.94C1423.4299999999998 1288.3600000000001 1415.79 1297.94 1408.4899999999998 1308.39C1395.9799999999998 1309.5600000000002 1383.9999999999998 1311.45 1372.9799999999998 1313.98C1372.2899999999997 1311.16 1371.6799999999998 1308.38 1371.1499999999999 1305.67C1366.1499999999999 1279.76 1369.4699999999998 1260.21 1377.83 1255.3000000000002ZM1364.85 1396.56C1362.59 1395.8999999999999 1360.3999999999999 1395.2 1358.29 1394.47C1345.31 1389.98 1334.6 1384.13 1327.25 1377.75C1320.65 1372.02 1317.32 1366.34 1317.32 1361.72C1317.32 1351.89 1331.76 1339.3600000000001 1355.86 1330.84C1358.78 1329.81 1361.84 1328.84 1365.02 1327.9199999999998C1368.35 1338.9099999999999 1372.72 1350.3899999999999 1377.99 1361.9999999999998C1372.65 1373.7799999999997 1368.22 1385.4499999999998 1364.85 1396.5599999999997ZM1426.46 1449.1C1416.13 1458.25 1405.79 1464.74 1396.67 1468C1388.48 1470.94 1381.95 1471.02 1378.01 1468.72C1369.61 1463.81 1366.12 1444.8600000000001 1370.8799999999999 1419.44C1371.4299999999998 1416.53 1372.08 1413.54 1372.83 1410.48C1383.73 1412.93 1395.79 1414.69 1408.6799999999998 1415.75C1416.0499999999997 1426.25 1423.7599999999998 1435.91 1431.5299999999997 1444.36C1429.8299999999997 1446.02 1428.1399999999996 1447.61 1426.4599999999998 1449.1ZM1439.44 1436.07C1434.05 1430.1699999999998 1428.68 1423.6499999999999 1423.43 1416.6399999999999C1428.53 1416.84 1433.72 1416.9499999999998 1439 1416.9499999999998C1444.42 1416.9499999999998 1449.79 1416.8199999999997 1455.06 1416.58C1449.8799999999999 1423.72 1444.6499999999999 1430.25 1439.44 1436.07ZM1508.47 1452.1C1506.89 1460.76 1503.7 1466.54 1499.76 1468.85C1491.37 1473.78 1473.44 1467.3799999999999 1454.1 1450.5C1451.8799999999999 1448.57 1449.6499999999999 1446.5 1447.4099999999999 1444.32C1454.9099999999999 1436 1462.3999999999999 1426.34 1469.7099999999998 1415.6C1482.5799999999997 1414.4399999999998 1494.7299999999998 1412.55 1505.7499999999998 1409.9699999999998C1506.2899999999997 1412.1899999999998 1506.7799999999997 1414.37 1507.1899999999998 1416.4999999999998C1509.85 1430.1299999999999 1510.2299999999998 1442.4699999999998 1508.4699999999998 1452.0999999999997ZM1518.12 1394.54C1516.6699999999998 1395.03 1515.1699999999998 1395.5 1513.6499999999999 1395.95C1510.28 1385.14 1505.7399999999998 1373.65 1500.1799999999998 1361.77C1505.4799999999998 1350.18 1509.85 1338.83 1513.1299999999999 1328.09C1515.85 1328.8899999999999 1518.4899999999998 1329.73 1521.04 1330.62C1545.6599999999999 1339.2199999999998 1560.68 1351.9299999999998 1560.68 1361.7199999999998C1560.68 1372.1499999999999 1544.46 1385.6899999999998 1518.1200000000001 1394.5399999999997ZM1439 1337.63C1452.12 1337.63 1462.76 1348.41 1462.76 1361.72C1462.76 1375.02 1452.12 1385.81 1439 1385.81C1425.88 1385.81 1415.24 1375.02 1415.24 1361.72C1415.24 1348.41 1425.88 1337.63 1439 1337.63 " fill="#48c5fa" fill-opacity="1" transform="matrix(1,0,0,1,-1305,-1241)"></path><path id="SvgjsPath1008" d="M1524.74 1319.72C1521.98 1318.76 1519.1200000000001 1317.8500000000001 1516.17 1316.99C1516.65 1314.98 1517.1000000000001 1313.01 1517.49 1311.06C1523.98 1279.1499999999999 1519.74 1253.44 1505.26 1244.97C1491.3799999999999 1236.8600000000001 1468.68 1245.32 1445.75 1265.55C1443.54 1267.5 1441.33 1269.56 1439.12 1271.72C1437.6499999999999 1270.29 1436.1799999999998 1268.91 1434.7099999999998 1267.59C1410.6799999999998 1245.9499999999998 1386.6 1236.84 1372.1399999999999 1245.33C1358.27 1253.47 1354.1599999999999 1277.6399999999999 1359.9999999999998 1307.8799999999999C1360.5599999999997 1310.8 1361.2199999999998 1313.79 1361.9599999999998 1316.82C1358.5599999999997 1317.8 1355.2599999999998 1318.85 1352.12 1319.96C1323.9399999999998 1329.92 1305.9499999999998 1345.53 1305.9499999999998 1361.72C1305.9499999999998 1378.44 1325.2699999999998 1395.21 1354.61 1405.38C1356.9299999999998 1406.18 1359.33 1406.94 1361.8 1407.66C1361 1410.94 1360.3 1414.16 1359.71 1417.2900000000002C1354.15 1447.0100000000002 1358.5 1470.6100000000001 1372.33 1478.7000000000003C1386.61 1487.0500000000002 1410.59 1478.4700000000003 1433.9399999999998 1457.7700000000002C1435.7799999999997 1456.14 1437.6399999999999 1454.4000000000003 1439.4899999999998 1452.5900000000001C1441.8999999999999 1454.93 1444.2999999999997 1457.16 1446.6799999999998 1459.2400000000002C1469.2999999999997 1478.9700000000003 1491.6399999999999 1486.9400000000003 1505.4499999999998 1478.8300000000002C1519.7299999999998 1470.45 1524.36 1445.1000000000001 1518.34 1414.2600000000002C1517.8799999999999 1411.9000000000003 1517.35 1409.4900000000002 1516.75 1407.0500000000002C1518.43 1406.5400000000002 1520.08 1406.0200000000002 1521.69 1405.4800000000002C1552.2 1395.2300000000002 1572.05 1378.6600000000003 1572.05 1361.7200000000003C1572.05 1345.4700000000003 1553.48 1329.7600000000002 1524.74 1319.7200000000003ZM1453.21 1274.25C1472.8600000000001 1256.91 1491.22 1250.07 1499.58 1254.96C1508.49 1260.17 1511.96 1281.18 1506.36 1308.74C1506 1310.49 1505.6 1312.29 1505.1599999999999 1314.1C1494.12 1311.52 1482.1399999999999 1309.6 1469.59 1308.3999999999999C1462.27 1297.85 1454.6999999999998 1288.2499999999998 1447.09 1279.9399999999998C1449.1399999999999 1277.9399999999998 1451.1799999999998 1276.0399999999997 1453.2099999999998 1274.2499999999998ZM1390.55 1361.99C1393.98 1354.74 1397.77 1347.45 1401.87 1340.24V1340.25C1405.9799999999998 1333.02 1410.3 1326.05 1414.77 1319.42C1422.68 1318.8100000000002 1430.8 1318.5 1439 1318.5C1447.24 1318.5 1455.36 1318.81 1463.27 1319.43C1467.67 1326.01 1471.97 1332.96 1476.1 1340.18C1480.27 1347.49 1484.1 1354.73 1487.57 1361.8300000000002C1484.11 1369.0500000000002 1480.29 1376.3700000000001 1476.1299999999999 1383.67C1471.9699999999998 1390.98 1467.6999999999998 1397.96 1463.37 1404.5500000000002C1455.4699999999998 1405.1200000000001 1447.31 1405.42 1439 1405.42C1430.72 1405.42 1422.66 1405.16 1414.91 1404.65C1410.4 1397.97 1406.03 1390.97 1401.9 1383.73C1397.7800000000002 1376.51 1393.99 1369.23 1390.5500000000002 1361.99ZM1384.52 1375.55C1386.9 1380.21 1389.42 1384.87 1392.06 1389.51C1394.76 1394.23 1397.55 1398.85 1400.4199999999998 1403.36C1391.6999999999998 1402.3799999999999 1383.4899999999998 1401.04 1375.8999999999999 1399.37C1378.2499999999998 1391.6699999999998 1381.1399999999999 1383.6799999999998 1384.5199999999998 1375.55ZM1384.51 1348.44C1381.2 1340.48 1378.37 1332.65 1376.05 1325.0900000000001C1383.6399999999999 1323.3700000000001 1391.74 1321.96 1400.18 1320.89C1397.38 1325.3100000000002 1394.66 1329.8500000000001 1392.02 1334.49C1389.3899999999999 1339.11 1386.8799999999999 1343.77 1384.51 1348.44ZM1485.98 1389.43C1488.69 1384.66 1491.26 1379.89 1493.7 1375.13C1497.25 1383.3500000000001 1500.25 1391.3000000000002 1502.63 1398.8700000000001C1494.92 1400.65 1486.5900000000001 1402.0900000000001 1477.8100000000002 1403.16C1480.5700000000002 1398.72 1483.3000000000002 1394.14 1485.9800000000002 1389.43ZM1493.59 1348.45C1491.1799999999998 1343.8 1488.62 1339.1200000000001 1485.9299999999998 1334.41C1483.2999999999997 1329.8000000000002 1480.6 1325.2900000000002 1477.84 1320.91C1486.33 1322 1494.47 1323.45 1502.11 1325.22C1499.81 1332.67 1496.9499999999998 1340.46 1493.59 1348.45ZM1439.13 1288.18C1444.3700000000001 1293.94 1449.6200000000001 1300.3700000000001 1454.7900000000002 1307.3500000000001C1449.5800000000002 1307.1000000000001 1444.3100000000002 1306.97 1439.0000000000002 1306.97C1433.7400000000002 1306.97 1428.5100000000002 1307.1000000000001 1423.3400000000001 1307.34C1428.5100000000002 1300.4299999999998 1433.8000000000002 1294.01 1439.13 1288.1799999999998ZM1377.83 1255.3C1386.73 1250.08 1406.4199999999998 1257.53 1427.1699999999998 1276.21C1428.4899999999998 1277.4 1429.82 1278.65 1431.1599999999999 1279.94C1423.4299999999998 1288.3600000000001 1415.79 1297.94 1408.4899999999998 1308.39C1395.9799999999998 1309.5600000000002 1383.9999999999998 1311.45 1372.9799999999998 1313.98C1372.2899999999997 1311.16 1371.6799999999998 1308.38 1371.1499999999999 1305.67C1366.1499999999999 1279.76 1369.4699999999998 1260.21 1377.83 1255.3000000000002ZM1364.85 1396.56C1362.59 1395.8999999999999 1360.3999999999999 1395.2 1358.29 1394.47C1345.31 1389.98 1334.6 1384.13 1327.25 1377.75C1320.65 1372.02 1317.32 1366.34 1317.32 1361.72C1317.32 1351.89 1331.76 1339.3600000000001 1355.86 1330.84C1358.78 1329.81 1361.84 1328.84 1365.02 1327.9199999999998C1368.35 1338.9099999999999 1372.72 1350.3899999999999 1377.99 1361.9999999999998C1372.65 1373.7799999999997 1368.22 1385.4499999999998 1364.85 1396.5599999999997ZM1426.46 1449.1C1416.13 1458.25 1405.79 1464.74 1396.67 1468C1388.48 1470.94 1381.95 1471.02 1378.01 1468.72C1369.61 1463.81 1366.12 1444.8600000000001 1370.8799999999999 1419.44C1371.4299999999998 1416.53 1372.08 1413.54 1372.83 1410.48C1383.73 1412.93 1395.79 1414.69 1408.6799999999998 1415.75C1416.0499999999997 1426.25 1423.7599999999998 1435.91 1431.5299999999997 1444.36C1429.8299999999997 1446.02 1428.1399999999996 1447.61 1426.4599999999998 1449.1ZM1439.44 1436.07C1434.05 1430.1699999999998 1428.68 1423.6499999999999 1423.43 1416.6399999999999C1428.53 1416.84 1433.72 1416.9499999999998 1439 1416.9499999999998C1444.42 1416.9499999999998 1449.79 1416.8199999999997 1455.06 1416.58C1449.8799999999999 1423.72 1444.6499999999999 1430.25 1439.44 1436.07ZM1508.47 1452.1C1506.89 1460.76 1503.7 1466.54 1499.76 1468.85C1491.37 1473.78 1473.44 1467.3799999999999 1454.1 1450.5C1451.8799999999999 1448.57 1449.6499999999999 1446.5 1447.4099999999999 1444.32C1454.9099999999999 1436 1462.3999999999999 1426.34 1469.7099999999998 1415.6C1482.5799999999997 1414.4399999999998 1494.7299999999998 1412.55 1505.7499999999998 1409.9699999999998C1506.2899999999997 1412.1899999999998 1506.7799999999997 1414.37 1507.1899999999998 1416.4999999999998C1509.85 1430.1299999999999 1510.2299999999998 1442.4699999999998 1508.4699999999998 1452.0999999999997ZM1518.12 1394.54C1516.6699999999998 1395.03 1515.1699999999998 1395.5 1513.6499999999999 1395.95C1510.28 1385.14 1505.7399999999998 1373.65 1500.1799999999998 1361.77C1505.4799999999998 1350.18 1509.85 1338.83 1513.1299999999999 1328.09C1515.85 1328.8899999999999 1518.4899999999998 1329.73 1521.04 1330.62C1545.6599999999999 1339.2199999999998 1560.68 1351.9299999999998 1560.68 1361.7199999999998C1560.68 1372.1499999999999 1544.46 1385.6899999999998 1518.1200000000001 1394.5399999999997ZM1439 1337.63C1452.12 1337.63 1462.76 1348.41 1462.76 1361.72C1462.76 1375.02 1452.12 1385.81 1439 1385.81C1425.88 1385.81 1415.24 1375.02 1415.24 1361.72C1415.24 1348.41 1425.88 1337.63 1439 1337.63 " fill="#ff9c00" fill-opacity="1" transform="matrix(1,0,0,1,-1305,-1241)"></path></svg>